<svg width="48" height="44" viewBox="0 0 48 44" fill="none" xmlns="http://www.w3.org/2000/svg">
<path d="M44.7628 16.8056C43.5965 13.677 41.9953 10.7041 40.0094 7.8681C39.9875 7.84685 39.9656 7.82561 39.9218 7.82561C37.0084 6.50845 33.854 5.55245 30.5682 5.0001C30.5394 4.9992 30.5108 5.00445 30.4843 5.01546C30.4578 5.02647 30.4341 5.04298 30.4149 5.06383C30.0206 5.7649 29.5606 6.67841 29.2539 7.37947C25.7688 6.86961 22.2245 6.86961 18.7393 7.37947C18.4326 6.65716 17.9726 5.7649 17.5564 5.06383C17.5345 5.02134 17.4688 5.0001 17.4031 5.0001C14.1173 5.55245 10.9848 6.50845 8.04951 7.82561C8.0276 7.82561 8.00569 7.84685 7.98379 7.8681C2.02553 16.5146 0.382628 24.9274 1.19313 33.2552C1.19313 33.2977 1.21503 33.3402 1.25884 33.3614C5.20181 36.1657 8.99144 37.8652 12.7373 38.9912C12.803 39.0124 12.8687 38.9912 12.8906 38.9487C13.7668 37.7803 14.5554 36.5481 15.2345 35.2522C15.2783 35.1672 15.2345 35.0822 15.1468 35.061C13.8982 34.5936 12.7153 34.0412 11.5544 33.4039C11.4667 33.3614 11.4667 33.234 11.5325 33.1702C11.7734 33.0003 12.0144 32.8091 12.2553 32.6391C12.2991 32.5966 12.3649 32.5966 12.4087 32.6179C19.9441 35.9532 28.071 35.9532 35.5188 32.6179C35.5626 32.5966 35.6284 32.5966 35.6722 32.6391C35.9131 32.8303 36.1541 33.0003 36.395 33.1915C36.4827 33.2552 36.4827 33.3827 36.3731 33.4252C35.2341 34.0837 34.0293 34.6148 32.7807 35.0822C32.693 35.1035 32.6711 35.2097 32.693 35.2734C33.394 36.5693 34.1826 37.8015 35.0369 38.97C35.1026 38.9912 35.1683 39.0124 35.2341 38.9912C39.0018 37.8652 42.7914 36.1657 46.7344 33.3614C46.7782 33.3402 46.8001 33.2977 46.8001 33.2552C47.2676 28.5868 46.9053 24.2184 45.8156 20.1111" stroke="#33FF00" stroke-linecap="round"/>
<path d="M29.8851 7.53795C32.5883 8.02081 35.1828 8.82748 37.5849 9.924C41.9576 16.3062 44.1202 23.4677 43.3448 31.7139C40.0864 34.0437 36.9527 35.4824 33.8369 36.4484C33.2521 35.6202 32.7057 34.7566 32.2074 33.8575C33.1644 33.4782 34.0976 33.047 34.9904 32.5251C35.1896 32.4272 35.319 32.2344 35.3322 32.0148C35.345 31.8008 35.2458 31.6042 35.0865 31.4811C34.9781 31.394 34.8706 31.3122 34.7691 31.235L34.7667 31.2331C34.6655 31.1562 34.5701 31.0836 34.4757 31.0079C34.2592 30.8161 33.982 30.8333 33.8065 30.9149C27.4643 33.7959 20.55 33.7969 14.129 30.9142C13.9572 30.8349 13.6889 30.8174 13.4752 30.996C13.3717 31.0706 13.2695 31.1483 13.1732 31.2216L13.1703 31.2238C13.0645 31.3042 12.9655 31.3794 12.8677 31.4495L12.8358 31.4723L12.8079 31.4997C12.6654 31.64 12.609 31.8283 12.6191 31.996C12.6293 32.1673 12.7174 32.3851 12.9416 32.5031C13.847 33.0071 14.7694 33.4529 15.7347 33.8398C15.2474 34.7406 14.6991 35.606 14.0995 36.4359C11.0142 35.47 7.89388 34.0338 4.64982 31.7143C3.99634 24.5627 5.40176 17.3448 10.4191 9.91106C12.8336 8.81982 15.4035 8.01749 18.0961 7.53687C18.4111 8.09663 18.7387 8.7536 18.9642 9.29253L19.1143 9.65121L19.4989 9.59412C22.4808 9.15146 25.5133 9.15146 28.4952 9.59412L28.8755 9.65058L29.0278 9.29748C29.2542 8.77223 29.582 8.10263 29.8851 7.53795ZM13.2682 23.477C13.2682 25.9011 15.087 27.951 17.3683 27.951C19.6903 27.951 21.4673 25.8987 21.4684 23.4792C21.4884 21.0742 19.7087 19.0031 17.3683 19.0031C15.0456 19.0031 13.2682 21.0566 13.2682 23.477ZM26.5448 23.477C26.5448 25.9011 28.3635 27.951 30.6449 27.951C32.9875 27.951 34.7439 25.8969 34.7449 23.4792C34.7649 21.0742 32.9853 19.0031 30.6449 19.0031C28.3222 19.0031 26.5448 21.0566 26.5448 23.477Z" fill="white" stroke="#33FF00"/>
</svg>
