<svg width="48" height="44" viewBox="0 0 48 44" fill="none" xmlns="http://www.w3.org/2000/svg">
<g clip-path="url(#clip0_1_339)">
<path d="M4.82322 5.35433C4.24912 6.35415 3.9395 7.4945 3.9395 8.66667V25.92L0.714285 32.3511C-1.50792 36.7844 1.72398 42 6.69441 42H41.3047C46.2751 42 49.5093 36.7844 47.2848 32.3511L44.0596 25.92V8.66667C44.0596 6.89856 43.3551 5.20286 42.1011 3.95262C40.8471 2.70238 39.1463 2 37.3729 2H10.6262C9.3715 2 8.15318 2.35157 7.10371 3" stroke="#33FF00" stroke-linecap="round"/>
<path d="M4.14654 30.5778L4.1465 30.5779C2.13755 34.666 5.05258 39.5 9.57868 39.5H38.4206C42.9463 39.5 45.8638 34.6662 43.8527 30.5778C43.8527 30.5778 43.8527 30.5778 43.8527 30.5777L41.2163 25.2157V10.6667C41.2163 9.03385 40.5786 7.46625 39.4408 6.30916C38.3027 5.15178 36.7573 4.5 35.1441 4.5H12.8552C11.242 4.5 9.69657 5.15178 8.55847 6.30916C7.42066 7.46625 6.78291 9.03385 6.78291 10.6667V25.2157L4.14654 30.5778ZM11.8983 9.68159C12.1535 9.42203 12.4979 9.27778 12.8552 9.27778H35.1441C35.5014 9.27778 35.8457 9.42203 36.101 9.68159C36.3565 9.94144 36.5015 10.2956 36.5015 10.6667V20.1111C36.5015 20.4822 36.3565 20.8363 36.101 21.0962C35.8457 21.3557 35.5014 21.5 35.1441 21.5H12.8552C12.4979 21.5 12.1535 21.3557 11.8983 21.0962C11.6428 20.8363 11.4977 20.4822 11.4977 20.1111V10.6667C11.4977 10.2956 11.6428 9.94144 11.8983 9.68159Z" fill="white" stroke="#33FF00"/>
</g>
<defs>
<clipPath id="clip0_1_339">
<rect width="48" height="44" fill="white"/>
</clipPath>
</defs>
</svg>
