<svg width="48" height="44" viewBox="0 0 48 44" fill="none" xmlns="http://www.w3.org/2000/svg">
<g clip-path="url(#clip0_1_342)">
<path d="M19.428 14.1189L18.6986 13.7421V14.5631V29.439V30.26L19.428 29.8833L33.8287 22.4453L34.6888 22.0011L33.8287 21.5568L19.428 14.1189Z" stroke="#33FF00" stroke-linecap="round"/>
<path d="M42.606 12.5102L42.6061 12.5106C42.9895 13.8191 43.2123 15.7849 43.3387 17.6165C43.4642 19.4357 43.4921 21.0778 43.498 21.718C43.498 21.7182 43.498 21.7183 43.498 21.7185L43.5 21.9799V21.9816V22.2818C43.493 22.9242 43.4646 24.5651 43.3389 26.3824C43.2123 28.214 42.9896 30.1794 42.6063 31.4869C42.1534 33.0239 40.8169 34.2607 39.0916 34.6811C37.7309 35.0119 34.9271 35.2147 32.0569 35.3324L31.0521 35.3725C31.0517 35.3726 31.0512 35.3726 31.0508 35.3726C28.218 35.4703 25.552 35.4948 24.4874 35.4982L24.4872 35.4983L24.019 35.5H24.0182H23.5103C22.3812 35.4939 19.4605 35.4685 16.4482 35.3536C13.413 35.2378 10.3531 35.0327 8.90731 34.6813C7.1739 34.2537 5.83883 33.0177 5.39199 31.488L5.39187 31.4876C5.00845 30.1792 4.7857 28.2134 4.65932 26.3818C4.53392 24.5643 4.506 22.9235 4.5 22.2821V21.7162C4.506 21.0747 4.53392 19.4335 4.65932 17.6158C4.78569 15.7841 5.00842 13.8185 5.39176 12.511C5.84484 10.9741 7.18115 9.73764 8.90805 9.31898L8.90873 9.31881C10.3529 8.96652 13.4133 8.76094 16.4494 8.64511C19.4622 8.53017 22.3835 8.50525 23.5121 8.5H24.4878C25.5543 8.50525 28.2195 8.52798 31.051 8.62742C31.0513 8.62743 31.0515 8.62744 31.0518 8.62745L32.0569 8.66584C32.0571 8.66585 32.0574 8.66586 32.0576 8.66587C34.9271 8.7836 37.73 8.98626 39.0909 9.31698C40.826 9.74458 42.1591 10.9804 42.606 12.5102ZM20.2261 15.4302L19.4988 15.0589V15.8755V28.1263V28.9428L20.2261 28.5716L32.2267 22.4462L33.0992 22.0009L32.2267 21.5555L20.2261 15.4302Z" fill="white" stroke="#33FF00"/>
<path d="M31.6617 20.2476C33.0432 21.0075 33.0432 22.9926 31.6617 23.7525L20.5758 29.8497C19.2429 30.5828 17.6119 29.6185 17.6119 28.0973L17.6119 15.9028C17.6119 14.3816 19.2429 13.4173 20.5758 14.1504L31.6617 20.2476Z" fill="black" stroke="#33FF00"/>
</g>
<defs>
<clipPath id="clip0_1_342">
<rect width="48" height="44" fill="white"/>
</clipPath>
</defs>
</svg>
